<svg width="20" height="20" viewBox="0 0 20 20" fill="none" xmlns="http://www.w3.org/2000/svg">
<path d="M14.1665 17.7083H5.83317C2.7915 17.7083 1.0415 15.9583 1.0415 12.9167V7.08332C1.0415 4.04166 2.7915 2.29166 5.83317 2.29166H14.1665C17.2082 2.29166 18.9582 4.04166 18.9582 7.08332V12.9167C18.9582 15.9583 17.2082 17.7083 14.1665 17.7083ZM5.83317 3.54166C3.44984 3.54166 2.2915 4.69999 2.2915 7.08332V12.9167C2.2915 15.3 3.44984 16.4583 5.83317 16.4583H14.1665C16.5498 16.4583 17.7082 15.3 17.7082 12.9167V7.08332C17.7082 4.69999 16.5498 3.54166 14.1665 3.54166H5.83317Z" fill="#0D437C"/>
<path d="M10 13.125C8.275 13.125 6.875 11.725 6.875 10C6.875 8.275 8.275 6.875 10 6.875C11.725 6.875 13.125 8.275 13.125 10C13.125 11.725 11.725 13.125 10 13.125ZM10 8.125C8.96667 8.125 8.125 8.96667 8.125 10C8.125 11.0333 8.96667 11.875 10 11.875C11.0333 11.875 11.875 11.0333 11.875 10C11.875 8.96667 11.0333 8.125 10 8.125Z" fill="#0D437C"/>
<path d="M3.75 8.95833C3.40833 8.95833 3.125 8.675 3.125 8.33333V7.08333C3.125 5.59167 4.34167 4.375 5.83333 4.375H7.08333C7.425 4.375 7.70833 4.65833 7.70833 5C7.70833 5.34167 7.425 5.625 7.08333 5.625H5.83333C5.03333 5.625 4.375 6.28333 4.375 7.08333V8.33333C4.375 8.675 4.09167 8.95833 3.75 8.95833Z" fill="#0D437C"/>
<path d="M16.2498 8.95833C15.9082 8.95833 15.6248 8.675 15.6248 8.33333V7.08333C15.6248 6.28333 14.9665 5.625 14.1665 5.625H12.9165C12.5748 5.625 12.2915 5.34167 12.2915 5C12.2915 4.65833 12.5748 4.375 12.9165 4.375H14.1665C15.6582 4.375 16.8748 5.59167 16.8748 7.08333V8.33333C16.8748 8.675 16.5915 8.95833 16.2498 8.95833Z" fill="#0D437C"/>
<path d="M7.08333 15.625H5.83333C4.34167 15.625 3.125 14.4083 3.125 12.9167V11.6667C3.125 11.325 3.40833 11.0417 3.75 11.0417C4.09167 11.0417 4.375 11.325 4.375 11.6667V12.9167C4.375 13.7167 5.03333 14.375 5.83333 14.375H7.08333C7.425 14.375 7.70833 14.6583 7.70833 15C7.70833 15.3417 7.425 15.625 7.08333 15.625Z" fill="#0D437C"/>
<path d="M14.1665 15.625H12.9165C12.5748 15.625 12.2915 15.3417 12.2915 15C12.2915 14.6583 12.5748 14.375 12.9165 14.375H14.1665C14.9665 14.375 15.6248 13.7167 15.6248 12.9167V11.6667C15.6248 11.325 15.9082 11.0417 16.2498 11.0417C16.5915 11.0417 16.8748 11.325 16.8748 11.6667V12.9167C16.8748 14.4083 15.6582 15.625 14.1665 15.625Z" fill="#0D437C"/>
</svg>
