<svg width="20" height="20" viewBox="0 0 20 20" fill="none" xmlns="http://www.w3.org/2000/svg">
<path d="M15.8275 9.4375H12.7975C11.29 9.4375 10.5625 8.77 10.5625 7.39V3.985C10.5625 2.605 11.2975 1.9375 12.7975 1.9375H15.8275C17.335 1.9375 18.0625 2.605 18.0625 3.985V7.3825C18.0625 8.77 17.3275 9.4375 15.8275 9.4375ZM12.7975 3.0625C11.7925 3.0625 11.6875 3.3475 11.6875 3.985V7.3825C11.6875 8.0275 11.7925 8.305 12.7975 8.305H15.8275C16.8325 8.305 16.9375 8.02 16.9375 7.3825V3.985C16.9375 3.34 16.8325 3.0625 15.8275 3.0625H12.7975Z" fill="#0D437C"/>
<path d="M15.8275 18.0625H12.7975C11.29 18.0625 10.5625 17.3275 10.5625 15.8275V12.7975C10.5625 11.29 11.2975 10.5625 12.7975 10.5625H15.8275C17.335 10.5625 18.0625 11.2975 18.0625 12.7975V15.8275C18.0625 17.3275 17.3275 18.0625 15.8275 18.0625ZM12.7975 11.6875C11.9125 11.6875 11.6875 11.9125 11.6875 12.7975V15.8275C11.6875 16.7125 11.9125 16.9375 12.7975 16.9375H15.8275C16.7125 16.9375 16.9375 16.7125 16.9375 15.8275V12.7975C16.9375 11.9125 16.7125 11.6875 15.8275 11.6875H12.7975Z" fill="#0D437C"/>
<path d="M7.2025 9.4375H4.1725C2.665 9.4375 1.9375 8.77 1.9375 7.39V3.985C1.9375 2.605 2.6725 1.9375 4.1725 1.9375H7.2025C8.71 1.9375 9.4375 2.605 9.4375 3.985V7.3825C9.4375 8.77 8.7025 9.4375 7.2025 9.4375ZM4.1725 3.0625C3.1675 3.0625 3.0625 3.3475 3.0625 3.985V7.3825C3.0625 8.0275 3.1675 8.305 4.1725 8.305H7.2025C8.2075 8.305 8.3125 8.02 8.3125 7.3825V3.985C8.3125 3.34 8.2075 3.0625 7.2025 3.0625H4.1725Z" fill="#0D437C"/>
<path d="M7.2025 18.0625H4.1725C2.665 18.0625 1.9375 17.3275 1.9375 15.8275V12.7975C1.9375 11.29 2.6725 10.5625 4.1725 10.5625H7.2025C8.71 10.5625 9.4375 11.2975 9.4375 12.7975V15.8275C9.4375 17.3275 8.7025 18.0625 7.2025 18.0625ZM4.1725 11.6875C3.2875 11.6875 3.0625 11.9125 3.0625 12.7975V15.8275C3.0625 16.7125 3.2875 16.9375 4.1725 16.9375H7.2025C8.0875 16.9375 8.3125 16.7125 8.3125 15.8275V12.7975C8.3125 11.9125 8.0875 11.6875 7.2025 11.6875H4.1725Z" fill="#0D437C"/>
</svg>
