<svg width="20" height="19" viewBox="0 0 20 19" fill="none" xmlns="http://www.w3.org/2000/svg">
<path d="M9.9999 11.2179C8.2249 11.2179 6.7749 9.84833 6.7749 8.15416C6.7749 6.45999 8.2249 5.09833 9.9999 5.09833C11.7749 5.09833 13.2249 6.46791 13.2249 8.16208C13.2249 9.85624 11.7749 11.2179 9.9999 11.2179ZM9.9999 6.28583C8.91657 6.28583 8.0249 7.12499 8.0249 8.16208C8.0249 9.19916 8.90824 10.0383 9.9999 10.0383C11.0916 10.0383 11.9749 9.19916 11.9749 8.16208C11.9749 7.12499 11.0832 6.28583 9.9999 6.28583Z" fill="#0D437C"/>
<path d="M9.9999 18.0183C8.76657 18.0183 7.5249 17.575 6.55824 16.6962C4.0999 14.4479 1.38324 10.8617 2.40824 6.59458C3.33324 2.72333 6.89157 0.989578 9.9999 0.989578C9.9999 0.989578 9.9999 0.989578 10.0082 0.989578C13.1166 0.989578 16.6749 2.72333 17.5999 6.60249C18.6166 10.8696 15.8999 14.4479 13.4416 16.6962C12.4749 17.575 11.2332 18.0183 9.9999 18.0183ZM9.9999 2.17708C7.5749 2.17708 4.45824 3.40416 3.63324 6.85583C2.73324 10.5846 5.1999 13.7987 7.43324 15.8333C8.8749 17.1554 11.1332 17.1554 12.5749 15.8333C14.7999 13.7987 17.2666 10.5846 16.3832 6.85583C15.5499 3.40416 12.4249 2.17708 9.9999 2.17708Z" fill="#0D437C"/>
</svg>
