<svg width="16" height="16" viewBox="0 0 16 16" fill="none" xmlns="http://www.w3.org/2000/svg">
<path d="M11.3333 14.1667H4.66668C2.23334 14.1667 0.833344 12.7667 0.833344 10.3333V5.66667C0.833344 3.23333 2.23334 1.83333 4.66668 1.83333H11.3333C13.7667 1.83333 15.1667 3.23333 15.1667 5.66667V10.3333C15.1667 12.7667 13.7667 14.1667 11.3333 14.1667ZM4.66668 2.83333C2.76001 2.83333 1.83334 3.76 1.83334 5.66667V10.3333C1.83334 12.24 2.76001 13.1667 4.66668 13.1667H11.3333C13.24 13.1667 14.1667 12.24 14.1667 10.3333V5.66667C14.1667 3.76 13.24 2.83333 11.3333 2.83333H4.66668Z" fill="#0D437C"/>
<path d="M8 10.5C6.62 10.5 5.5 9.38 5.5 8C5.5 6.62 6.62 5.5 8 5.5C9.38 5.5 10.5 6.62 10.5 8C10.5 9.38 9.38 10.5 8 10.5ZM8 6.5C7.17333 6.5 6.5 7.17333 6.5 8C6.5 8.82667 7.17333 9.5 8 9.5C8.82667 9.5 9.5 8.82667 9.5 8C9.5 7.17333 8.82667 6.5 8 6.5Z" fill="#0D437C"/>
<path d="M3 7.16667C2.72667 7.16667 2.5 6.94 2.5 6.66667V5.66667C2.5 4.47333 3.47333 3.5 4.66667 3.5H5.66667C5.94 3.5 6.16667 3.72667 6.16667 4C6.16667 4.27333 5.94 4.5 5.66667 4.5H4.66667C4.02667 4.5 3.5 5.02667 3.5 5.66667V6.66667C3.5 6.94 3.27333 7.16667 3 7.16667Z" fill="#0D437C"/>
<path d="M13 7.16667C12.7267 7.16667 12.5 6.94 12.5 6.66667V5.66667C12.5 5.02667 11.9733 4.5 11.3333 4.5H10.3333C10.06 4.5 9.83334 4.27333 9.83334 4C9.83334 3.72667 10.06 3.5 10.3333 3.5H11.3333C12.5267 3.5 13.5 4.47333 13.5 5.66667V6.66667C13.5 6.94 13.2733 7.16667 13 7.16667Z" fill="#0D437C"/>
<path d="M5.66667 12.5H4.66667C3.47333 12.5 2.5 11.5267 2.5 10.3333V9.33333C2.5 9.06 2.72667 8.83333 3 8.83333C3.27333 8.83333 3.5 9.06 3.5 9.33333V10.3333C3.5 10.9733 4.02667 11.5 4.66667 11.5H5.66667C5.94 11.5 6.16667 11.7267 6.16667 12C6.16667 12.2733 5.94 12.5 5.66667 12.5Z" fill="#0D437C"/>
<path d="M11.3333 12.5H10.3333C10.06 12.5 9.83334 12.2733 9.83334 12C9.83334 11.7267 10.06 11.5 10.3333 11.5H11.3333C11.9733 11.5 12.5 10.9733 12.5 10.3333V9.33333C12.5 9.06 12.7267 8.83333 13 8.83333C13.2733 8.83333 13.5 9.06 13.5 9.33333V10.3333C13.5 11.5267 12.5267 12.5 11.3333 12.5Z" fill="#0D437C"/>
</svg>
