<svg width="20" height="20" viewBox="0 0 20 20" fill="none" xmlns="http://www.w3.org/2000/svg">
<path d="M10.8332 18.9583H4.1665C2.14984 18.9583 1.0415 17.85 1.0415 15.8333V9.16666C1.0415 7.14999 2.14984 6.04166 4.1665 6.04166H8.33317C8.67484 6.04166 8.95817 6.32499 8.95817 6.66666V15.8333C8.95817 17.15 9.5165 17.7083 10.8332 17.7083C11.1748 17.7083 11.4582 17.9917 11.4582 18.3333C11.4582 18.675 11.1748 18.9583 10.8332 18.9583ZM4.1665 7.29166C2.84984 7.29166 2.2915 7.84999 2.2915 9.16666V15.8333C2.2915 17.15 2.84984 17.7083 4.1665 17.7083H8.16649C7.86649 17.2167 7.70817 16.5917 7.70817 15.8333V7.29166H4.1665Z" fill="#0D437C"/>
<path d="M8.33317 7.29168H4.1665C3.82484 7.29168 3.5415 7.00834 3.5415 6.66668V5.00001C3.5415 3.73334 4.5665 2.70834 5.83317 2.70834H8.42483C8.61649 2.70834 8.79985 2.79999 8.91651 2.94999C9.03318 3.10833 9.07483 3.30835 9.02483 3.49168C8.97483 3.67501 8.95817 3.88334 8.95817 4.16668V6.66668C8.95817 7.00834 8.67484 7.29168 8.33317 7.29168ZM4.7915 6.04168H7.70817V4.16668C7.70817 4.09168 7.70817 4.02501 7.70817 3.95834H5.83317C5.25817 3.95834 4.7915 4.42501 4.7915 5.00001V6.04168Z" fill="#0D437C"/>
<path d="M11.6665 11.4583C11.3248 11.4583 11.0415 11.175 11.0415 10.8333V6.66666C11.0415 6.32499 11.3248 6.04166 11.6665 6.04166C12.0082 6.04166 12.2915 6.32499 12.2915 6.66666V10.8333C12.2915 11.175 12.0082 11.4583 11.6665 11.4583Z" fill="#0D437C"/>
<path d="M15 11.4583C14.6583 11.4583 14.375 11.175 14.375 10.8333V6.66666C14.375 6.32499 14.6583 6.04166 15 6.04166C15.3417 6.04166 15.625 6.32499 15.625 6.66666V10.8333C15.625 11.175 15.3417 11.4583 15 11.4583Z" fill="#0D437C"/>
<path d="M14.9998 18.9583H11.6665C11.3248 18.9583 11.0415 18.675 11.0415 18.3333V15C11.0415 14.2 11.6998 13.5417 12.4998 13.5417H14.1665C14.9665 13.5417 15.6248 14.2 15.6248 15V18.3333C15.6248 18.675 15.3415 18.9583 14.9998 18.9583ZM12.2915 17.7083H14.3748V15C14.3748 14.8833 14.2832 14.7917 14.1665 14.7917H12.4998C12.3832 14.7917 12.2915 14.8833 12.2915 15V17.7083Z" fill="#0D437C"/>
<path d="M5 14.7917C4.65833 14.7917 4.375 14.5083 4.375 14.1667V10.8333C4.375 10.4917 4.65833 10.2083 5 10.2083C5.34167 10.2083 5.625 10.4917 5.625 10.8333V14.1667C5.625 14.5083 5.34167 14.7917 5 14.7917Z" fill="#0D437C"/>
<path d="M15.8335 18.9583H10.8335C8.81683 18.9583 7.7085 17.85 7.7085 15.8333V4.16666C7.7085 2.14999 8.81683 1.04166 10.8335 1.04166H15.8335C17.8502 1.04166 18.9585 2.14999 18.9585 4.16666V15.8333C18.9585 17.85 17.8502 18.9583 15.8335 18.9583ZM10.8335 2.29166C9.51683 2.29166 8.9585 2.84999 8.9585 4.16666V15.8333C8.9585 17.15 9.51683 17.7083 10.8335 17.7083H15.8335C17.1502 17.7083 17.7085 17.15 17.7085 15.8333V4.16666C17.7085 2.84999 17.1502 2.29166 15.8335 2.29166H10.8335Z" fill="#0D437C"/>
</svg>
