<svg width="20" height="20" viewBox="0 0 20 20" fill="none" xmlns="http://www.w3.org/2000/svg">
<path d="M10.0003 12.7083C8.50866 12.7083 7.29199 11.4917 7.29199 9.99999C7.29199 8.50832 8.50866 7.29166 10.0003 7.29166C11.492 7.29166 12.7087 8.50832 12.7087 9.99999C12.7087 11.4917 11.492 12.7083 10.0003 12.7083ZM10.0003 8.54166C9.20033 8.54166 8.54199 9.19999 8.54199 9.99999C8.54199 10.8 9.20033 11.4583 10.0003 11.4583C10.8003 11.4583 11.4587 10.8 11.4587 9.99999C11.4587 9.19999 10.8003 8.54166 10.0003 8.54166Z" fill="#0D437C"/>
<path d="M15.417 12.7083C15.0753 12.7083 14.792 12.425 14.792 12.0833V7.91666C14.792 7.57499 15.0753 7.29166 15.417 7.29166C15.7587 7.29166 16.042 7.57499 16.042 7.91666V12.0833C16.042 12.425 15.7587 12.7083 15.417 12.7083Z" fill="#0D437C"/>
<path d="M4.16634 18.9583C2.78301 18.9583 1.48301 18.225 0.78301 17.0333C0.40801 16.4333 0.208008 15.725 0.208008 15C0.208008 12.8167 1.98301 11.0417 4.16634 11.0417C6.34967 11.0417 8.12467 12.8167 8.12467 15C8.12467 15.725 7.92467 16.4333 7.54967 17.0417C6.84967 18.225 5.54967 18.9583 4.16634 18.9583ZM4.16634 12.2917C2.67467 12.2917 1.45801 13.5083 1.45801 15C1.45801 15.4917 1.59134 15.975 1.84968 16.3916C2.33301 17.2083 3.22467 17.7083 4.16634 17.7083C5.10801 17.7083 5.99967 17.2083 6.48301 16.4C6.74134 15.975 6.87467 15.5 6.87467 15C6.87467 13.5083 5.65801 12.2917 4.16634 12.2917Z" fill="#0D437C"/>
<path d="M3.69205 16.45C3.53371 16.45 3.37538 16.3917 3.25038 16.2667L2.42539 15.4417C2.18372 15.2001 2.18372 14.8 2.42539 14.5584C2.66706 14.3167 3.06706 14.3167 3.30872 14.5584L3.70873 14.9584L5.04204 13.725C5.29204 13.4917 5.69204 13.5084 5.92538 13.7584C6.15871 14.0084 6.14206 14.4084 5.89206 14.6417L4.11706 16.2834C3.99206 16.3917 3.84205 16.45 3.69205 16.45Z" fill="#0D437C"/>
<path d="M14.167 17.2917H7.08366C6.74199 17.2917 6.45866 17.0083 6.45866 16.6667C6.45866 16.325 6.74199 16.0417 7.08366 16.0417H14.167C16.5503 16.0417 17.7087 14.8833 17.7087 12.5V7.50001C17.7087 5.11668 16.5503 3.95834 14.167 3.95834H5.83366C3.45033 3.95834 2.29199 5.11668 2.29199 7.50001V12.75C2.29199 13.0917 2.00866 13.375 1.66699 13.375C1.32533 13.375 1.04199 13.0917 1.04199 12.75V7.50001C1.04199 4.45834 2.79199 2.70834 5.83366 2.70834H14.167C17.2087 2.70834 18.9587 4.45834 18.9587 7.50001V12.5C18.9587 15.5417 17.2087 17.2917 14.167 17.2917Z" fill="#0D437C"/>
</svg>
