<svg width="16" height="16" viewBox="0 0 16 16" fill="none" xmlns="http://www.w3.org/2000/svg">
<path d="M8 15.1667C7.53333 15.1667 7.06 14.9867 6.70667 14.6333L5.56665 13.5067C5.28665 13.2267 4.90001 13.0733 4.50667 13.0733H4C2.62 13.0733 1.5 11.96 1.5 10.5933V3.31334C1.5 1.94667 2.62 0.833336 4 0.833336H12C13.38 0.833336 14.5 1.94667 14.5 3.31334V10.5867C14.5 11.9533 13.38 13.0667 12 13.0667H11.4933C11.1 13.0667 10.7134 13.2267 10.4333 13.5L9.29333 14.6267C8.94 14.9867 8.46667 15.1667 8 15.1667ZM4 1.83334C3.17333 1.83334 2.5 2.5 2.5 3.31334V10.5867C2.5 11.4067 3.17333 12.0667 4 12.0667H4.50667C5.16667 12.0667 5.80665 12.3333 6.27332 12.7933L7.41333 13.92C7.74 14.24 8.26668 14.24 8.59334 13.92L9.73332 12.7933C10.2 12.3333 10.84 12.0667 11.5 12.0667H12C12.8267 12.0667 13.5 11.4 13.5 10.5867V3.31334C13.5 2.49334 12.8267 1.83334 12 1.83334H4Z" fill="#0D437C"/>
<path d="M8.04654 6.46666C8.03321 6.46666 8.0132 6.46666 7.99987 6.46666C7.97987 6.46666 7.95322 6.46666 7.93322 6.46666C6.95988 6.43333 6.19986 5.64666 6.19986 4.66666C6.19986 3.67333 7.00653 2.86666 7.99987 2.86666C8.9932 2.86666 9.79988 3.67333 9.79988 4.66666C9.79321 5.64666 9.03322 6.43333 8.05989 6.46666C8.05989 6.46666 8.05321 6.46666 8.04654 6.46666ZM7.99987 3.86666C7.55987 3.86666 7.19986 4.22666 7.19986 4.66666C7.19986 5.09999 7.53988 5.45333 7.96654 5.46666C7.96654 5.45999 8.00655 5.45999 8.05321 5.46666C8.47321 5.43999 8.79988 5.09333 8.79988 4.66666C8.79988 4.22666 8.43987 3.86666 7.99987 3.86666Z" fill="#0D437C"/>
<path d="M8 11.1333C7.24 11.1333 6.48001 10.9333 5.88668 10.54C5.32668 10.1667 5 9.62668 5 9.05334C5 8.48001 5.32001 7.93334 5.88668 7.56001C7.07334 6.77334 8.92665 6.77334 10.1066 7.56001C10.6666 7.93334 10.9933 8.48001 10.9933 9.04667C10.9933 9.62001 10.6733 10.16 10.1066 10.54C9.51998 10.94 8.76 11.1333 8 11.1333ZM6.43998 8.39334C6.15332 8.58668 6 8.82001 6 9.05334C6 9.28668 6.15998 9.52001 6.43998 9.71334C7.28665 10.28 8.70668 10.28 9.55334 9.71334C9.84001 9.52001 9.99999 9.28668 9.99333 9.05334C9.99333 8.82001 9.83334 8.58668 9.55334 8.39334C8.71334 7.82668 7.28665 7.82668 6.43998 8.39334Z" fill="#0D437C"/>
</svg>
