<svg width="16" height="16" viewBox="0 0 16 16" fill="none" xmlns="http://www.w3.org/2000/svg">
<path d="M11.8267 15.1667H5.09335C4.88669 15.1667 4.70002 15.04 4.62669 14.84C4.55336 14.64 4.60668 14.4267 4.76668 14.2867C5.23335 13.8733 5.50668 13.28 5.50668 12.66C5.50668 11.4667 4.53335 10.4933 3.34002 10.4933C2.84668 10.4933 2.38002 10.66 1.98668 10.9734C1.83335 11.0933 1.63336 11.1133 1.46002 11.0333C1.28669 10.9533 1.18002 10.7733 1.18002 10.58V7.66667C1.18002 6.00667 2.52669 4.66 4.18669 4.66H11.84C13.5 4.66 14.8467 6.00667 14.8467 7.66667V8.62667C14.8467 8.9 14.62 9.12667 14.3467 9.12667H13C12.7667 9.12667 12.5534 9.21333 12.4 9.37333L12.3934 9.38001C12.2067 9.56001 12.12 9.80669 12.14 10.06C12.18 10.5 12.6 10.8534 13.08 10.8534H14.3467C14.62 10.8534 14.8467 11.08 14.8467 11.3534V12.1466C14.8334 13.82 13.4867 15.1667 11.8267 15.1667ZM6.12002 14.1667H11.8267C12.9334 14.1667 13.8334 13.2667 13.8334 12.16V11.8667H13.0667C12.06 11.8667 11.2067 11.12 11.1267 10.16C11.0734 9.61333 11.2734 9.07335 11.6734 8.68002C12.02 8.32668 12.4867 8.13334 12.9867 8.13334H13.8334V7.67334C13.8334 6.56668 12.9334 5.66667 11.8267 5.66667H4.17335C3.06668 5.66667 2.16669 6.56668 2.16669 7.67334V9.72669C2.54002 9.58002 2.93335 9.5 3.33335 9.5C5.08002 9.5 6.50002 10.92 6.50002 12.6667C6.50002 13.1933 6.36668 13.7133 6.12002 14.1667Z" fill="#0D437C"/>
<path d="M1.66666 8.17339C1.39332 8.17339 1.16666 7.94673 1.16666 7.67339V5.22674C1.16666 4.23341 1.78666 3.3267 2.71333 2.98003L8.00665 0.980035C8.55332 0.780035 9.16666 0.853407 9.63999 1.18674C10.1133 1.52007 10.4 2.06006 10.4 2.6334V5.16672C10.4 5.44005 10.1733 5.66672 9.89999 5.66672C9.62666 5.66672 9.39999 5.44005 9.39999 5.16672V2.6334C9.39999 2.38006 9.27999 2.15339 9.07332 2.00673C8.85999 1.86006 8.59999 1.82672 8.35999 1.91338L3.06666 3.91338C2.51999 4.12005 2.16666 4.63341 2.16666 5.22674V7.67339C2.16666 7.94673 1.93999 8.17339 1.66666 8.17339Z" fill="#0D437C"/>
<path d="M13.0667 11.8666C12.06 11.8666 11.2066 11.12 11.1266 10.16C11.0733 9.60662 11.2733 9.06663 11.6733 8.6733C12.0133 8.32663 12.48 8.1333 12.98 8.1333H14.3666C15.0266 8.1533 15.5333 8.67327 15.5333 9.31327V10.6866C15.5333 11.3266 15.0266 11.8466 14.3866 11.8666H13.0667ZM14.3533 9.1333H12.9866C12.7533 9.1333 12.54 9.21996 12.3866 9.37996C12.1933 9.56663 12.1 9.81995 12.1266 10.0733C12.1666 10.5133 12.5867 10.8666 13.0667 10.8666H14.3733C14.46 10.8666 14.54 10.7866 14.54 10.6866V9.31327C14.54 9.21327 14.46 9.13997 14.3533 9.1333Z" fill="#0D437C"/>
<path d="M9.33332 8.5H4.66666C4.39332 8.5 4.16666 8.27333 4.16666 8C4.16666 7.72667 4.39332 7.5 4.66666 7.5H9.33332C9.60666 7.5 9.83332 7.72667 9.83332 8C9.83332 8.27333 9.60666 8.5 9.33332 8.5Z" fill="#0D437C"/>
<path d="M3.33332 15.8333C1.58666 15.8333 0.166656 14.4133 0.166656 12.6667C0.166656 11.6933 0.599989 10.7933 1.35332 10.1933C1.91332 9.74665 2.61999 9.5 3.33332 9.5C5.07999 9.5 6.49999 10.92 6.49999 12.6667C6.49999 13.5733 6.10666 14.44 5.42666 15.04C4.83999 15.5533 4.09999 15.8333 3.33332 15.8333ZM3.33332 10.5C2.83999 10.5 2.37332 10.6666 1.97999 10.98C1.46666 11.3866 1.16666 12.0067 1.16666 12.6667C1.16666 13.86 2.13999 14.8333 3.33332 14.8333C3.85332 14.8333 4.35999 14.64 4.76665 14.2933C5.23332 13.88 5.49999 13.2933 5.49999 12.6667C5.49999 11.4733 4.52666 10.5 3.33332 10.5Z" fill="#0D437C"/>
<path d="M2.6666 13.8333C2.49993 13.8333 2.33327 13.7467 2.23993 13.5933C2.09993 13.3533 2.17326 13.0467 2.41326 12.9067L3.0066 12.5533V11.8333C3.0066 11.56 3.23326 11.3333 3.5066 11.3333C3.77993 11.3333 4.0066 11.56 4.0066 11.8333V12.8333C4.0066 13.0067 3.91326 13.1733 3.76659 13.26L2.93326 13.76C2.84659 13.8133 2.75327 13.8333 2.6666 13.8333Z" fill="#0D437C"/>
</svg>
